<svg width="84" height="39" viewBox="0 0 84 39" fill="none" xmlns="http://www.w3.org/2000/svg">
<g clip-path="url(#clip0_5782_10554)">
<mask id="mask0_5782_10554" style="mask-type:luminance" maskUnits="userSpaceOnUse" x="0" y="0" width="84" height="39">
<path d="M84 0H0V39H84V0Z" fill="white"/>
</mask>
<g mask="url(#mask0_5782_10554)">
<path d="M18.5662 38.3908H1.21277C0.631066 38.3908 0.142695 37.9899 0.0254857 37.4136C-0.0917236 36.8329 0.20347 36.2674 0.743935 36.0399L22.8053 26.68C23.0875 26.563 23.4131 26.6908 23.5324 26.9724C23.6518 27.2541 23.5216 27.5769 23.2394 27.6983L1.17804 37.0583C1.15417 37.0691 1.09122 37.0951 1.11292 37.1948C1.13246 37.2858 1.18889 37.2858 1.21494 37.2858H18.5684C18.8745 37.2858 19.1219 37.5328 19.1219 37.8383C19.1219 38.1438 18.8745 38.3908 18.5684 38.3908H18.5662Z" fill="url(#paint0_linear_5782_10554)"/>
<path d="M23.02 27.741C22.9787 27.741 22.9375 27.7367 22.8963 27.728C22.5989 27.6608 22.4122 27.364 22.4795 27.0672L26.5471 9.20953C26.7946 8.1782 27.5868 7.3917 28.6135 7.1512L58.9599 0.027204C59.8737 -0.187296 60.8266 0.0705357 61.5082 0.716203C62.1897 1.36187 62.4956 2.29786 62.3285 3.22086C62.2743 3.52203 61.9812 3.72136 61.6839 3.6672C61.3822 3.61303 61.1826 3.32487 61.2368 3.0237C61.3388 2.46037 61.1586 1.9122 60.744 1.51786C60.3294 1.12353 59.7695 0.971871 59.2117 1.10403L28.8653 8.22803C28.2467 8.3732 27.7713 8.84553 27.6237 9.46303L23.5561 27.3142C23.4975 27.572 23.2696 27.7453 23.0156 27.7453L23.02 27.741Z" fill="url(#paint1_linear_5782_10554)"/>
<path d="M22.2851 37.5436C21.9465 37.5436 21.7142 37.4591 21.5818 37.2815C21.4516 37.0951 21.4603 36.8416 21.6079 36.5188C21.788 36.1245 22.1223 35.819 22.6063 35.6023C23.0838 35.39 23.7654 35.2361 24.6531 35.1386C24.9353 34.5255 24.8051 34.22 24.2646 34.2243C23.9651 34.2243 23.6048 34.3153 23.1815 34.493C22.9927 34.5796 22.8885 34.5471 22.8689 34.3998C22.8581 34.3283 22.8668 34.272 22.8928 34.2265C22.9189 34.181 22.9753 34.1376 23.0665 34.0986C23.6547 33.8451 24.1691 33.7173 24.6075 33.713C25.072 33.7086 25.3564 33.843 25.4627 34.1138C25.5582 34.3673 25.4975 34.7291 25.2826 35.1993L24.7682 36.3195L24.3666 37.1926C24.2906 37.3595 24.1582 37.4418 23.9694 37.444C23.7958 37.444 23.7328 37.3703 23.7849 37.2186L23.8522 37.0106H23.8305C23.2162 37.3638 22.7018 37.5415 22.2851 37.5436ZM22.6996 37.0518C22.882 37.0518 23.0816 37.0106 23.2987 36.9283C23.4875 36.8503 23.722 36.729 24.002 36.5621L24.2364 36.0508L24.4708 35.5416C23.7958 35.6175 23.2835 35.7323 22.9341 35.8861C22.6063 36.0313 22.3871 36.2263 22.2742 36.4711C22.183 36.6683 22.183 36.8178 22.272 36.9196C22.3523 37.0085 22.4956 37.0518 22.7018 37.0496L22.6996 37.0518Z" fill="url(#paint2_linear_5782_10554)"/>
<path d="M28.7333 38.9432C28.5119 38.9432 28.4468 38.8435 28.5379 38.6442L29.5885 36.354L30.6651 34.0097C30.741 33.845 30.8734 33.7605 31.0623 33.7605C31.2359 33.7605 31.2967 33.8342 31.2468 33.9859L31.1903 34.1744H31.212C31.8154 33.832 32.3125 33.6587 32.6988 33.6544C33.1959 33.65 33.5063 33.8169 33.63 34.157C33.7451 34.482 33.6734 34.9305 33.4086 35.5047C33.133 36.1027 32.7401 36.588 32.2278 36.9585C31.746 37.3052 31.2685 37.4807 30.7931 37.4829C30.4415 37.485 30.1441 37.3485 29.901 37.069L29.6232 37.706L29.1956 38.6399C29.1023 38.8414 28.9482 38.9432 28.7311 38.9432H28.7333ZM30.9212 36.9737C31.2554 36.9737 31.5832 36.8437 31.9088 36.5859C32.2452 36.3172 32.5144 35.9597 32.7184 35.5177C33.1308 34.6185 32.9919 34.17 32.3016 34.1744C31.9869 34.1744 31.5571 34.3455 31.0145 34.6857L30.5739 35.6455L30.1354 36.5989C30.3416 36.8524 30.6043 36.978 30.9233 36.9737H30.9212Z" fill="url(#paint3_linear_5782_10554)"/>
<path d="M38.2572 37.4309C37.5083 37.4353 37.3195 37.0344 37.6928 36.2241L38.6218 34.2026H38.2811C38.1161 34.2069 38.0705 34.1289 38.1421 33.9729C38.2138 33.8148 38.331 33.7346 38.4938 33.7281L38.878 33.7064L39.2925 32.9264C39.3815 32.7661 39.5139 32.6838 39.6941 32.6816C39.8829 32.6816 39.9372 32.7661 39.859 32.9351L39.5074 33.7021L40.304 33.6956C40.482 33.6956 40.5341 33.7758 40.4581 33.9404C40.3821 34.1051 40.2541 34.1896 40.0761 34.1918H39.8091L39.2795 34.1983L38.344 36.2328C38.2355 36.4711 38.1986 36.6444 38.2333 36.7549C38.2745 36.8763 38.4069 36.9348 38.6283 36.9326C38.6913 36.9326 38.7564 36.9239 38.8259 36.9109C39.0234 36.8611 39.1059 36.9153 39.0755 37.0778C39.0538 37.2208 38.9561 37.3139 38.7781 37.3594C38.5741 37.4049 38.4004 37.4288 38.255 37.4309H38.2572Z" fill="url(#paint4_linear_5782_10554)"/>
<path d="M44.7696 37.3851C44.2617 37.3894 43.9144 37.2247 43.7256 36.8911C43.5216 36.5401 43.552 36.0721 43.8211 35.4892C44.0903 34.9042 44.4896 34.4319 45.0214 34.0701C45.5185 33.7321 46.0199 33.5609 46.5278 33.5587C47.04 33.5544 47.3873 33.7191 47.5718 34.0527C47.7715 34.4124 47.7389 34.8826 47.4698 35.4654C47.2028 36.0461 46.8056 36.5162 46.276 36.8737C45.7789 37.2117 45.2754 37.3829 44.7696 37.3851ZM45.0041 36.8759C45.347 36.8759 45.6813 36.7437 46.009 36.4881C46.3368 36.2324 46.5951 35.8944 46.7904 35.4719C46.9836 35.0516 47.0335 34.7114 46.9402 34.4536C46.8555 34.1957 46.6406 34.0679 46.2934 34.0701C45.9547 34.0701 45.6227 34.2044 45.2927 34.4644C44.9628 34.7244 44.7023 35.0667 44.5092 35.4871C44.316 35.9074 44.2639 36.2454 44.3551 36.4989C44.4462 36.7524 44.6633 36.8781 45.0041 36.8759Z" fill="url(#paint5_linear_5782_10554)"/>
<path d="M50.8963 38.7889C50.6749 38.7889 50.6098 38.6892 50.701 38.4899L51.7515 36.1997L52.8281 33.8554C52.9041 33.6907 53.0365 33.6062 53.2253 33.6062C53.399 33.6062 53.4619 33.6799 53.4098 33.8316L53.3534 34.0201H53.3751C53.9785 33.6777 54.4756 33.5044 54.8619 33.5001C55.359 33.4957 55.6694 33.6626 55.7931 34.0027C55.9081 34.3277 55.8365 34.7762 55.5717 35.3504C55.296 35.9484 54.9032 36.4337 54.3909 36.8042C53.9091 37.1509 53.4315 37.3264 52.9562 37.3286C52.6046 37.3307 52.3072 37.1942 52.0641 36.9147L51.7841 37.5517L51.3565 38.4856C51.2632 38.6871 51.1091 38.7889 50.892 38.7889H50.8963ZM53.0864 36.8194C53.4207 36.8172 53.7484 36.6872 54.074 36.4316C54.4105 36.1629 54.6796 35.8054 54.8836 35.3634C55.296 34.4642 55.1571 34.0157 54.4669 34.0201C54.1522 34.0201 53.7224 34.1912 53.1776 34.5314L52.737 35.4912L52.2985 36.4446C52.5047 36.6981 52.7673 36.8237 53.0864 36.8216V36.8194Z" fill="url(#paint6_linear_5782_10554)"/>
<path d="M54.7171 25.1707H28.8941C28.0411 25.1707 27.2532 24.7851 26.7323 24.1134C26.2092 23.4417 26.0312 22.5837 26.2417 21.7604L29.02 10.9292C29.2761 9.92825 30.0641 9.16559 31.0755 8.94025L58.4873 2.82158C58.6392 2.78692 58.7847 2.88225 58.8194 3.03175C58.852 3.18125 58.7586 3.32859 58.6089 3.36109L31.1971 9.47975C30.3918 9.65958 29.7623 10.2684 29.5583 11.0657L26.78 21.8969C26.6107 22.5534 26.754 23.2381 27.1707 23.7732C27.5875 24.3106 28.2169 24.6161 28.8963 24.6161H54.7192C54.8712 24.6161 54.9971 24.7396 54.9971 24.8934C54.9971 25.0472 54.8734 25.1707 54.7192 25.1707H54.7171Z" fill="url(#paint7_linear_5782_10554)"/>
<path d="M84.0002 20.666H82.8672V21.797H84.0002V20.666Z" fill="url(#paint8_linear_5782_10554)"/>
<path d="M40.2344 21.8424C38.3113 21.8424 36.9873 21.2985 36.2601 20.2109C35.5091 19.1124 35.5048 17.6412 36.2449 15.7974C36.9851 13.9535 38.1941 12.4824 39.8654 11.3839C41.489 10.307 43.2905 9.76758 45.2679 9.76758C46.7308 9.76758 47.8443 10.1619 48.6105 10.9505C48.7408 11.1 48.6496 11.2755 48.337 11.4792C48.0071 11.6937 47.7597 11.7024 47.5925 11.5117C46.9891 10.9267 46.1036 10.632 44.9401 10.632C43.3014 10.632 41.8167 11.0935 40.4862 12.0144C39.1535 12.9374 38.1724 14.1875 37.5364 15.7649C36.9005 17.3422 36.8397 18.6422 37.3888 19.5695C37.9467 20.5077 39.0493 20.9779 40.7011 20.9779C41.337 20.9779 41.9708 20.902 42.5981 20.7547C43.2276 20.6052 43.755 20.4015 44.1826 20.1459L45.5891 16.6445H42.6654C42.3268 16.6445 42.2139 16.5059 42.3246 16.2285C42.4353 15.9512 42.6546 15.8299 42.9932 15.8299H46.262C46.5181 15.8299 46.6983 15.8884 46.8003 16.0054C46.9023 16.1224 46.911 16.2827 46.8307 16.4842L45.3525 20.1632C45.2636 20.3864 45.0921 20.5727 44.8425 20.7222C43.5011 21.4675 41.9622 21.8402 40.2301 21.8402L40.2344 21.8424Z" fill="url(#paint9_linear_5782_10554)"/>
<path d="M51.4042 21.8432C50.2798 21.8432 49.5288 21.6569 49.1511 21.2842C48.7735 20.9115 48.7387 20.3417 49.0448 19.5769L50.4318 16.1275C50.5186 15.913 50.7573 15.8069 51.1502 15.8069C51.5431 15.8069 51.6972 15.913 51.6104 16.1275L50.256 19.4989C50.0107 20.1099 50.0172 20.5584 50.2755 20.8422C50.5338 21.126 51.0764 21.2669 51.9012 21.2669C52.5111 21.2669 53.1167 21.1737 53.718 20.9895C54.2606 20.8205 54.9313 20.528 55.7344 20.1164L57.3384 16.1254C57.4253 15.9109 57.664 15.8047 58.0569 15.8047C58.4498 15.8047 58.6039 15.9109 58.517 16.1254L57.46 18.7557L56.3856 21.4315C56.3139 21.6092 56.1099 21.698 55.7713 21.698C55.4587 21.698 55.3242 21.6135 55.3654 21.4445L55.5738 20.7252H55.513C54.7859 21.087 54.1217 21.3557 53.5226 21.5312C52.8172 21.737 52.1118 21.841 51.4085 21.841L51.4042 21.8432Z" fill="url(#paint10_linear_5782_10554)"/>
<path d="M61.0937 21.6352C60.6878 21.6352 60.5489 21.4749 60.6769 21.1564L64.9051 10.6329C64.9854 10.4314 65.1244 10.271 65.3219 10.154C65.5194 10.037 65.7451 9.97852 66.0013 9.97852H69.4937C72.7842 9.97852 74.0106 11.0185 73.1749 13.0985C72.8103 14.0042 72.1851 14.7344 71.2996 15.289C70.4357 15.822 69.4003 16.1579 68.1935 16.2965L69.8323 21.0134C69.9755 21.4294 69.7368 21.6374 69.1138 21.6374C68.8013 21.6374 68.6189 21.5355 68.5668 21.334L66.8413 16.3767H63.8155L61.8946 21.1585C61.7665 21.477 61.4996 21.6374 61.0937 21.6374V21.6352ZM64.1389 15.575H66.9628C69.6152 15.575 71.2757 14.7495 71.9399 13.0964C72.2698 12.2752 72.1656 11.6772 71.623 11.3045C71.1281 10.9514 70.2165 10.7759 68.8903 10.7759H66.0664L64.1389 15.5729V15.575Z" fill="url(#paint11_linear_5782_10554)"/>
<path d="M75.7343 21.8432C74.6099 21.8432 73.8589 21.6569 73.4812 21.2842C73.1036 20.9115 73.0688 20.3417 73.3749 19.5769L74.7619 16.1275C74.8487 15.913 75.0874 15.8069 75.4803 15.8069C75.8732 15.8069 76.0273 15.913 75.9405 16.1275L74.586 19.4989C74.3408 20.1099 74.3473 20.5584 74.6056 20.8422C74.8639 21.126 75.4065 21.2669 76.2313 21.2669C76.8412 21.2669 77.4468 21.1737 78.0481 20.9895C78.5907 20.8205 79.2614 20.528 80.0645 20.1164L81.6685 16.1254C81.7553 15.9109 81.9941 15.8047 82.387 15.8047C82.7798 15.8047 82.934 15.9109 82.8471 16.1254L81.7901 18.7557L80.7157 21.4315C80.644 21.6092 80.44 21.698 80.1014 21.698C79.7888 21.698 79.6543 21.6135 79.6955 21.4445L79.9039 20.7252H79.8431C79.116 21.087 78.4518 21.3557 77.8527 21.5312C77.1473 21.737 76.4419 21.841 75.7386 21.841L75.7343 21.8432Z" fill="url(#paint12_linear_5782_10554)"/>
<path d="M58.8176 37.2715H57.6846V38.4025H58.8176V37.2715Z" fill="url(#paint13_linear_5782_10554)"/>
<path d="M54.2542 27.7874H23.0223C22.8183 27.7874 22.6533 27.6228 22.6533 27.4191C22.6533 27.2154 22.8183 27.0508 23.0223 27.0508H54.2542C54.4583 27.0508 54.6232 27.2154 54.6232 27.4191C54.6232 27.6228 54.4583 27.7874 54.2542 27.7874Z" fill="url(#paint14_linear_5782_10554)"/>
</g>
</g>
<defs>
<linearGradient id="paint0_linear_5782_10554" x1="11.7883" y1="26.6367" x2="11.7883" y2="38.3908" gradientUnits="userSpaceOnUse">
<stop stop-color="#A660D7"/>
<stop offset="0.5" stop-color="#5B35AA"/>
<stop offset="1" stop-color="#281C72"/>
</linearGradient>
<linearGradient id="paint1_linear_5782_10554" x1="42.4196" y1="-0.046875" x2="42.4196" y2="27.7453" gradientUnits="userSpaceOnUse">
<stop stop-color="#A660D7"/>
<stop offset="0.5" stop-color="#5B35AA"/>
<stop offset="1" stop-color="#281C72"/>
</linearGradient>
<linearGradient id="paint2_linear_5782_10554" x1="23.4984" y1="33.7129" x2="23.4984" y2="37.5436" gradientUnits="userSpaceOnUse">
<stop stop-color="#A660D7"/>
<stop offset="0.5" stop-color="#5B35AA"/>
<stop offset="1" stop-color="#281C72"/>
</linearGradient>
<linearGradient id="paint3_linear_5782_10554" x1="31.0905" y1="33.6543" x2="31.0905" y2="38.9432" gradientUnits="userSpaceOnUse">
<stop stop-color="#A660D7"/>
<stop offset="0.5" stop-color="#5B35AA"/>
<stop offset="1" stop-color="#281C72"/>
</linearGradient>
<linearGradient id="paint4_linear_5782_10554" x1="38.9994" y1="32.6816" x2="38.9994" y2="37.431" gradientUnits="userSpaceOnUse">
<stop stop-color="#A660D7"/>
<stop offset="0.5" stop-color="#5B35AA"/>
<stop offset="1" stop-color="#281C72"/>
</linearGradient>
<linearGradient id="paint5_linear_5782_10554" x1="45.6465" y1="33.5586" x2="45.6465" y2="37.3852" gradientUnits="userSpaceOnUse">
<stop stop-color="#A660D7"/>
<stop offset="0.5" stop-color="#5B35AA"/>
<stop offset="1" stop-color="#281C72"/>
</linearGradient>
<linearGradient id="paint6_linear_5782_10554" x1="53.2536" y1="33.5" x2="53.2536" y2="38.7889" gradientUnits="userSpaceOnUse">
<stop stop-color="#A660D7"/>
<stop offset="0.5" stop-color="#5B35AA"/>
<stop offset="1" stop-color="#281C72"/>
</linearGradient>
<linearGradient id="paint7_linear_5782_10554" x1="42.4906" y1="2.81445" x2="42.4906" y2="25.1707" gradientUnits="userSpaceOnUse">
<stop stop-color="#A660D7"/>
<stop offset="0.5" stop-color="#5B35AA"/>
<stop offset="1" stop-color="#281C72"/>
</linearGradient>
<linearGradient id="paint8_linear_5782_10554" x1="83.4337" y1="20.666" x2="83.4337" y2="21.797" gradientUnits="userSpaceOnUse">
<stop stop-color="#A660D7"/>
<stop offset="0.5" stop-color="#5B35AA"/>
<stop offset="1" stop-color="#281C72"/>
</linearGradient>
<linearGradient id="paint9_linear_5782_10554" x1="42.1807" y1="9.76758" x2="42.1807" y2="21.8424" gradientUnits="userSpaceOnUse">
<stop stop-color="#A660D7"/>
<stop offset="0.5" stop-color="#5B35AA"/>
<stop offset="1" stop-color="#281C72"/>
</linearGradient>
<linearGradient id="paint10_linear_5782_10554" x1="53.6897" y1="15.8047" x2="53.6897" y2="21.8432" gradientUnits="userSpaceOnUse">
<stop stop-color="#A660D7"/>
<stop offset="0.5" stop-color="#5B35AA"/>
<stop offset="1" stop-color="#281C72"/>
</linearGradient>
<linearGradient id="paint11_linear_5782_10554" x1="67.0299" y1="9.97852" x2="67.0299" y2="21.6374" gradientUnits="userSpaceOnUse">
<stop stop-color="#A660D7"/>
<stop offset="0.5" stop-color="#5B35AA"/>
<stop offset="1" stop-color="#281C72"/>
</linearGradient>
<linearGradient id="paint12_linear_5782_10554" x1="78.0198" y1="15.8047" x2="78.0198" y2="21.8432" gradientUnits="userSpaceOnUse">
<stop stop-color="#A660D7"/>
<stop offset="0.5" stop-color="#5B35AA"/>
<stop offset="1" stop-color="#281C72"/>
</linearGradient>
<linearGradient id="paint13_linear_5782_10554" x1="58.2511" y1="37.2715" x2="58.2511" y2="38.4025" gradientUnits="userSpaceOnUse">
<stop stop-color="#A660D7"/>
<stop offset="0.5" stop-color="#5B35AA"/>
<stop offset="1" stop-color="#281C72"/>
</linearGradient>
<linearGradient id="paint14_linear_5782_10554" x1="38.6383" y1="27.0508" x2="38.6383" y2="27.7874" gradientUnits="userSpaceOnUse">
<stop stop-color="#A660D7"/>
<stop offset="0.5" stop-color="#5B35AA"/>
<stop offset="1" stop-color="#281C72"/>
</linearGradient>
<clipPath id="clip0_5782_10554">
<rect width="84" height="39" fill="white"/>
</clipPath>
</defs>
</svg>
